<svg xmlns="http://www.w3.org/2000/svg" viewBox="0 0 215 215">
  <title>logo-blue</title>
  <g id="Layer_2" data-name="Layer 2">
    <g id="Layer_6" data-name="Layer 6">
      <path d="M206.9,66.7A99.9,99.9,0,0,0,200,52.8,106.9,106.9,0,0,0,162.2,15L160,13.7a101.8,101.8,0,0,0-15-6.9A106.2,106.2,0,0,0,107.5,0,109.8,109.8,0,0,0,81.7,3.1a105.6,105.6,0,0,0-15,5A99.9,99.9,0,0,0,52.8,15,106.9,106.9,0,0,0,15,52.8,99.9,99.9,0,0,0,8.1,66.7a106.8,106.8,0,0,0,0,81.6A99.9,99.9,0,0,0,15,162.2,106.9,106.9,0,0,0,52.8,200a99.9,99.9,0,0,0,13.9,6.9,94,94,0,0,0,15,4.9,104.8,104.8,0,0,0,25.8,3.2,106.2,106.2,0,0,0,37.5-6.8V215h70V107.5A106.8,106.8,0,0,0,206.9,66.7ZM145,192a91.5,91.5,0,0,1-30,7.7q-3.7.3-7.5.3t-7.5-.3a92.4,92.4,0,0,1-18.3-3.4V115h118A92.4,92.4,0,0,1,160,183.6,84.7,84.7,0,0,1,145,192ZM100,15.3q3.8-.3,7.5-.3t7.5.3a93.9,93.9,0,0,1,30,7.6,92,92,0,0,1,15,8.5,93,93,0,0,1,30.5,35.3,84.7,84.7,0,0,1,5.8,15,92.4,92.4,0,0,1,3.4,18.3H81.7V18.7A85.7,85.7,0,0,1,100,15.3Zm-75.5,133a84.7,84.7,0,0,1-5.8-15A92.4,92.4,0,0,1,15.3,115q-.3-3.7-.3-7.5t.3-7.5a92.4,92.4,0,0,1,3.4-18.3,84.7,84.7,0,0,1,5.8-15A92.7,92.7,0,0,1,66.7,24.5v166A92.7,92.7,0,0,1,24.5,148.3ZM200,200H162.2A106.9,106.9,0,0,0,200,162.2Z" style="fill: #2d294e"/>
    </g>
  </g>
</svg>
